<svg id="Group_601" data-name="Group 601" xmlns="http://www.w3.org/2000/svg" xmlns:xlink="http://www.w3.org/1999/xlink" width="161.048" height="162.354" viewBox="0 0 161.048 162.354">
  <defs>
    <clipPath id="clip-path">
      <rect id="Rectangle_364" data-name="Rectangle 364" width="161.047" height="162.354" fill="#fff"/>
    </clipPath>
    <clipPath id="clip-path-2">
      <rect id="Rectangle_365" data-name="Rectangle 365" width="161.048" height="162.354" fill="#fff"/>
    </clipPath>
  </defs>
  <g id="Group_595" data-name="Group 595">
    <g id="Group_594" data-name="Group 594" clip-path="url(#clip-path)">
      <path id="Path_247" data-name="Path 247" d="M10.62,160.678H21.972v32.5c0,5.95-4.119,10.893-10.619,10.893H10.62C4.12,204.07,0,199.127,0,193.177v-41.47c0-5.767,4.119-10.8,10.619-10.8h.732c6.5,0,10.619,5.035,10.619,10.8v1.556H15.564v-1.83a4.206,4.206,0,0,0-4.3-4.395h-.549a4.206,4.206,0,0,0-4.3,4.395v42.11a4.282,4.282,0,0,0,4.3,4.486h.549a4.282,4.282,0,0,0,4.3-4.486V166.721H10.62Z" transform="translate(0 -67.502)" fill="#fff"/>
      <path id="Path_248" data-name="Path 248" d="M54.105,141.783H64.358a10.377,10.377,0,0,1,10.436,10.161v5.034c0,2.381-.183,5.036-3.3,6.5,3.479,1.557,4.577,4.76,4.577,7.781v32.773l-6.408.091V171.169a3.946,3.946,0,0,0-4.028-4.028H60.513v36.892H54.105ZM64.358,161.1a3.946,3.946,0,0,0,4.028-4.028v-5.218a3.946,3.946,0,0,0-4.028-4.028H60.513V161.1Z" transform="translate(-25.92 -67.923)" fill="#fff"/>
      <path id="Path_249" data-name="Path 249" d="M107.682,151.707c0-5.767,4.12-10.8,10.619-10.8h.732c6.5,0,10.619,5.035,10.619,10.8v51.906h-6.408V190.888H114.09v12.724h-6.408Zm15.563,33.139V151.34a4.206,4.206,0,0,0-4.3-4.394h-.55a4.206,4.206,0,0,0-4.3,4.394v33.506Z" transform="translate(-51.586 -67.502)" fill="#fff"/>
      <path id="Path_250" data-name="Path 250" d="M183.792,193.177c0,5.95-4.119,10.893-10.619,10.893h-.733c-6.5,0-10.619-4.943-10.619-10.893v-41.47c0-5.767,4.119-10.8,10.619-10.8h.733c6.5,0,10.619,5.035,10.619,10.8v1.556h-6.408v-1.831a4.207,4.207,0,0,0-4.3-4.395h-.55a4.206,4.206,0,0,0-4.3,4.395v42.111a4.281,4.281,0,0,0,4.3,4.486h.55a4.282,4.282,0,0,0,4.3-4.486v-1.831h6.408Z" transform="translate(-77.522 -67.502)" fill="#fff"/>
      <path id="Path_251" data-name="Path 251" d="M214.5,141.783h6.408v43.576h9.154V141.783h6.408v62.251h-6.408V191.4h-9.154v12.633H214.5Z" transform="translate(-102.76 -67.923)" fill="#fff"/>
      <path id="Path_252" data-name="Path 252" d="M274.755,147.825h-7.781v-6.041h21.971v6.041h-7.781v56.209h-6.408Z" transform="translate(-127.897 -67.923)" fill="#fff"/>
    </g>
  </g>
  <g id="Group_597" data-name="Group 597">
    <g id="Group_596" data-name="Group 596" clip-path="url(#clip-path-2)">
      <path id="Path_253" data-name="Path 253" d="M64.726,295.888c.188,1.115.287,2.063.287,2.063s.089-.948.257-2.074l.553-3.475h.731L65.5,299.057h-.879l-.543-3.248c-.228-1.313-.326-2.132-.326-2.132s-.089.819-.306,2.122l-.553,3.258h-.879L60.955,292.4H61.7l.543,3.475c.177,1.165.266,2.074.266,2.074s.1-.918.287-2.063l.573-3.485h.78Z" transform="translate(-29.201 -140.079)" fill="#fff"/>
      <path id="Path_254" data-name="Path 254" d="M77.756,297.485a1.719,1.719,0,0,1-3.426,0V293.8a1.718,1.718,0,0,1,3.426,0Zm-.77-3.663a.82.82,0,0,0-.938-.9c-.681,0-.938.356-.938.9v3.634a.938.938,0,0,0,1.876,0Z" transform="translate(-35.609 -139.988)" fill="#fff"/>
      <path id="Path_255" data-name="Path 255" d="M86.032,295.729c-.484-1.224-.79-2.093-.79-2.093a21.688,21.688,0,0,1,.089,2.232v3.189h-.77V292.4h.878l1.313,3.327c.563,1.441.78,2.093.78,2.093a17.77,17.77,0,0,1-.089-2.241V292.4h.769v6.654h-.868Z" transform="translate(-40.51 -140.078)" fill="#fff"/>
      <path id="Path_256" data-name="Path 256" d="M98.36,299.057H95.418V292.4H98.36v.691H96.2v2.261h1.875v.691H96.2v2.33H98.36Z" transform="translate(-45.711 -140.079)" fill="#fff"/>
      <path id="Path_257" data-name="Path 257" d="M105.547,295.729c-.484-1.224-.79-2.093-.79-2.093a21.818,21.818,0,0,1,.089,2.232v3.189h-.769V292.4h.878l1.313,3.327c.563,1.441.78,2.093.78,2.093a17.67,17.67,0,0,1-.089-2.241V292.4h.77v6.654h-.868Z" transform="translate(-49.859 -140.078)" fill="#fff"/>
      <path id="Path_258" data-name="Path 258" d="M120.581,295.463c-.366-1.056-.563-1.7-.563-1.7s.03.652.03,1.7v3.593h-.741V292.4h.908l.9,2.685c.267.8.475,1.511.475,1.511s.188-.662.483-1.521l.9-2.676h.9v6.654h-.741v-3.593c0-.988.02-1.688.02-1.688s-.207.691-.543,1.678l-.6,1.836h-.82Z" transform="translate(-57.155 -140.078)" fill="#fff"/>
      <path id="Path_259" data-name="Path 259" d="M134.829,299.057h-2.942V292.4h2.942v.691h-2.162v2.261h1.875v.691h-1.875v2.33h2.162Z" transform="translate(-63.182 -140.079)" fill="#fff"/>
      <path id="Path_260" data-name="Path 260" d="M140.538,293.094h-1.244V292.4h3.278v.691h-1.243v5.963h-.79Z" transform="translate(-66.73 -140.078)" fill="#fff"/>
      <path id="Path_261" data-name="Path 261" d="M155.48,299.057h-2.942V292.4h2.942v.691h-2.162v2.261h1.876v.691h-1.876v2.33h2.162Z" transform="translate(-73.075 -140.079)" fill="#fff"/>
      <path id="Path_262" data-name="Path 262" d="M164.139,299.057H161.2V292.4h2.942v.691h-2.162v2.261h1.875v.691h-1.875v2.33h2.162Z" transform="translate(-77.223 -140.079)" fill="#fff"/>
      <path id="Path_263" data-name="Path 263" d="M171.325,295.729c-.484-1.224-.79-2.093-.79-2.093a21.692,21.692,0,0,1,.089,2.232v3.189h-.77V292.4h.878l1.313,3.327c.563,1.441.78,2.093.78,2.093a17.669,17.669,0,0,1-.089-2.241V292.4h.77v6.654h-.868Z" transform="translate(-81.37 -140.078)" fill="#fff"/>
      <path id="Path_264" data-name="Path 264" d="M185.574,299.057l-1.531-6.654h.79l.79,3.515c.355,1.638.424,2.112.454,2.349a18.638,18.638,0,0,1,.454-2.349l.789-3.515h.79l-1.54,6.654Z" transform="translate(-88.168 -140.079)" fill="#fff"/>
      <path id="Path_265" data-name="Path 265" d="M197.559,299.057h-2.942V292.4h2.942v.691H195.4v2.261h1.875v.691H195.4v2.33h2.162Z" transform="translate(-93.233 -140.079)" fill="#fff"/>
      <path id="Path_266" data-name="Path 266" d="M204.054,296.43v2.626h-.78V292.4h1.6a1.5,1.5,0,0,1,1.718,1.57v.9a1.414,1.414,0,0,1-.849,1.4l1.027,2.784h-.859L205,296.43h-.948Zm0-3.337v2.636h.819c.671,0,.938-.326.938-.869v-.888c0-.533-.267-.879-.938-.879Z" transform="translate(-97.381 -140.078)" fill="#fff"/>
      <path id="Path_267" data-name="Path 267" d="M213.258,292.4h.79v3.041h2.034V292.4h.79v6.654h-.79v-2.912h-2.034v2.912h-.79Z" transform="translate(-102.164 -140.078)" fill="#fff"/>
      <path id="Path_268" data-name="Path 268" d="M225.545,292.4l1.5,6.654h-.78l-.4-1.826h-1.688l-.405,1.826h-.789l1.51-6.654Zm-1.225,4.157H225.7l-.227-1.027a23.952,23.952,0,0,1-.464-2.438,23.442,23.442,0,0,1-.464,2.438Z" transform="translate(-106.82 -140.078)" fill="#fff"/>
      <path id="Path_269" data-name="Path 269" d="M235.131,292.4l1.5,6.654h-.78l-.4-1.826h-1.688l-.405,1.826h-.789l1.51-6.654Zm-1.225,4.157h1.382l-.227-1.027a23.952,23.952,0,0,1-.464-2.438,23.432,23.432,0,0,1-.464,2.438Z" transform="translate(-111.412 -140.078)" fill="#fff"/>
      <path id="Path_270" data-name="Path 270" d="M245.889,299.057h-2.715V292.4h.79v5.973h1.925Z" transform="translate(-116.495 -140.079)" fill="#fff"/>
      <path id="Path_271" data-name="Path 271" d="M25.463,1.2h6.408V44.777h9.154V1.2h6.408V63.453H41.026V50.819H31.871V63.453H25.463Z" transform="translate(-12.199 -0.576)" fill="#fff"/>
    </g>
  </g>
  <g id="Group_599" data-name="Group 599">
    <g id="Group_598" data-name="Group 598" clip-path="url(#clip-path)">
      <path id="Path_272" data-name="Path 272" d="M198.026,20.1h11.352V52.6c0,5.95-4.119,10.893-10.619,10.893h-.732c-6.5,0-10.619-4.943-10.619-10.893V11.126c0-5.767,4.119-10.8,10.619-10.8h.732c6.5,0,10.619,5.035,10.619,10.8v1.556H202.97V10.851a4.206,4.206,0,0,0-4.3-4.394h-.549a4.206,4.206,0,0,0-4.3,4.394V52.962a4.281,4.281,0,0,0,4.3,4.486h.549a4.281,4.281,0,0,0,4.3-4.486V26.139h-4.944Z" transform="translate(-89.779 -0.155)" fill="#fff"/>
      <path id="Path_273" data-name="Path 273" d="M241.511,1.2h20.6V7.244H247.919V20.427h11.443v6.042H247.919V57.411h15.563v6.042H241.511Z" transform="translate(-115.698 -0.576)" fill="#fff"/>
      <path id="Path_274" data-name="Path 274" d="M85.067,10.418a4.2,4.2,0,0,1,4.295-4.386h.549A4.2,4.2,0,0,1,94.2,10.418V28.1a48.055,48.055,0,0,0,6.4-2.176V10.783C100.6,5.027,96.489,0,90,0H89.27c-6.487,0-10.6,5.026-10.6,10.782V27.475a36.554,36.554,0,0,0,6.4,1.321Z" transform="translate(-37.688 0)" fill="#fff"/>
      <path id="Path_275" data-name="Path 275" d="M138.759,10.418a4.2,4.2,0,0,1,4.295-4.386h.549a4.2,4.2,0,0,1,4.295,4.386V19.03a28.15,28.15,0,0,1,6.4.74V10.783c0-5.757-4.112-10.782-10.6-10.782h-.731c-6.487,0-10.6,5.026-10.6,10.782V23.3c2.118-.93,4.242-1.826,6.4-2.556Z" transform="translate(-63.409 0)" fill="#fff"/>
      <path id="Path_276" data-name="Path 276" d="M94.2,58.944a49.074,49.074,0,0,1-9.138,1.351,33.533,33.533,0,0,1-3.948-.049c-.821-.062-1.637-.159-2.448-.279v8.854a52.652,52.652,0,0,0,6.4-.527,50.232,50.232,0,0,0,9.138-2.2,47.578,47.578,0,0,0,5.248-2.152q.575-.277,1.148-.569V57.205c-2.123.632-4.254,1.235-6.4,1.739" transform="translate(-37.688 -27.405)" fill="#fff"/>
      <path id="Path_277" data-name="Path 277" d="M147.2,48.045a50.9,50.9,0,0,0-9.138,1.327c-2.012.462-4,1.007-5.958,1.586l-.439.132v4.829a34.391,34.391,0,0,1,6.4-2.584,17.219,17.219,0,0,1,9.138-.106,35.36,35.36,0,0,1,6.4,2.383V48.384a31.448,31.448,0,0,0-6.4-.34" transform="translate(-63.077 -23)" fill="#fff"/>
      <path id="Path_278" data-name="Path 278" d="M94.2,94.735v2.7a4.274,4.274,0,0,1-4.295,4.477h-.549a4.274,4.274,0,0,1-4.295-4.477V93.705a48.3,48.3,0,0,0-6.4.667v2.7a11.384,11.384,0,0,0,2.093,6.718,10.2,10.2,0,0,0,8.507,4.156H90a10.359,10.359,0,0,0,10.6-10.874v-.554c-2.126-.607-4.251-1.255-6.4-1.777" transform="translate(-37.688 -44.89)" fill="#fff"/>
      <path id="Path_279" data-name="Path 279" d="M147.234,96.424V97.8a4.274,4.274,0,0,1-4.295,4.477h-.549a4.2,4.2,0,0,1-4.226-3.663c-.593.056-1.188.092-1.788.1a25.747,25.747,0,0,1-4.643-.389,10.764,10.764,0,0,0,3.915,7.772,10.506,10.506,0,0,0,6.651,2.21h.731a10.179,10.179,0,0,0,10.2-7.748,12.2,12.2,0,0,0,.4-3.126V94.214c-2.141.692-4.264,1.483-6.4,2.21" transform="translate(-63.109 -45.134)" fill="#fff"/>
      <path id="Path_280" data-name="Path 280" d="M94.2,81.26c-2.935.524-5.871,1.074-8.82,1.415-.106.012-.213.02-.318.031-2.131.236-4.263.363-6.4.4v4.822a48.294,48.294,0,0,1,6.4-.667,31.615,31.615,0,0,1,4.524.173,37.207,37.207,0,0,1,4.614.857c2.145.522,4.27,1.171,6.4,1.778V80.254c-2.134.263-4.264.626-6.4,1.006" transform="translate(-37.688 -38.447)" fill="#fff" opacity="0.653"/>
      <path id="Path_281" data-name="Path 281" d="M147.2,82.6c-3.039-.791-6.066-1.657-9.138-2.225a37.867,37.867,0,0,0-4.012-.541c-.8-.061-1.59-.084-2.384-.089V90.5c0,.3.014.6.034.891a25.7,25.7,0,0,0,4.643.39c.6-.008,1.2-.044,1.788-.1a39.86,39.86,0,0,0,9.07-2.189c2.132-.726,4.256-1.518,6.4-2.21V84.006c-2.151-.347-4.277-.858-6.4-1.41" transform="translate(-63.077 -38.201)" fill="#fff" opacity="0.653"/>
      <path id="Path_282" data-name="Path 282" d="M99.453,69.612a47.613,47.613,0,0,1-5.248,2.152,50.259,50.259,0,0,1-9.138,2.2,52.651,52.651,0,0,1-6.4.527v3.243c2.133-.036,4.265-.163,6.4-.4.106-.011.212-.019.319-.031,2.947-.341,5.884-.891,8.82-1.415,2.131-.381,4.262-.743,6.4-1.006V69.042q-.574.291-1.148.57" transform="translate(-37.688 -33.075)" fill="#fff" opacity="0.353"/>
      <path id="Path_283" data-name="Path 283" d="M147.2,57.507a17.219,17.219,0,0,0-9.138.106,34.391,34.391,0,0,0-6.4,2.584v8.623c.794,0,1.588.028,2.384.089a37.863,37.863,0,0,1,4.012.541c3.072.568,6.1,1.435,9.138,2.225,2.119.552,4.245,1.062,6.4,1.41V59.89a35.4,35.4,0,0,0-6.4-2.383" transform="translate(-63.077 -27.279)" fill="#fff" opacity="0.353"/>
    </g>
  </g>
</svg>
