<?xml version="1.0" encoding="UTF-8"?>
<svg id="Layer_1" data-name="Layer 1" xmlns="http://www.w3.org/2000/svg" viewBox="0 0 297.09 321">
  <defs>
    <style>
      .cls-1 {
        fill: #fff;
      }
    </style>
  </defs>
  <path class="cls-1" d="M6,.5v58.7c0,2.5.9,4.2,3.5,4.2s3.4-1.7,3.4-4.2V.5h5.8v58.7c0,2.5.9,4.2,3.5,4.2s3.4-1.7,3.4-4.2V.5h5.8v58.9c0,5.7-3.3,9.6-9.2,9.6-2.7,0-5.1-1-6.4-2.6-1.3,1.6-3.7,2.6-6.3,2.6-5.9,0-9.3-3.9-9.3-9.6V.5h5.8Z"/>
  <path class="cls-1" d="M40.2,10.5c0-5.6,4-10.5,10.3-10.5h.9c6.3,0,10.3,4.9,10.3,10.5v58h-5.8v-14.5h-9.9v14.5h-5.8V10.5ZM55.9,48.5V10.1c0-2.5-1.7-4.6-4.5-4.6h-.8c-2.8,0-4.6,2.1-4.6,4.6v38.4h9.9Z"/>
  <path class="cls-1" d="M70.5,10.5c0-5.6,4-10.5,10.3-10.5h.9c6.3,0,10.3,4.9,10.3,10.5v58h-5.8v-14.5h-9.9v14.5h-5.8V10.5ZM86.2,48.5V10.1c0-2.5-1.7-4.6-4.5-4.6h-.8c-2.8,0-4.6,2.1-4.6,4.6v38.4h9.9Z"/>
  <path class="cls-1" d="M101,.5h10.1c5.9,0,10.2,4.7,10.2,10.1v6.4c0,2.5-.6,5.1-3.1,6.8,3,1.6,4.3,4.7,4.3,7.9v36.8l-5.8.1V31.5c0-2.3-1.7-4.4-4.4-4.4h-5.5v41.4h-5.8V.5ZM111.2,21.6c2.6,0,4.3-2.1,4.3-4.4v-6.8c0-2.3-1.7-4.4-4.4-4.4h-4.3v15.6h4.4Z"/>
  <path class="cls-1" d="M144.4.5h5.8v48.1h9.9V.5h5.8v68h-5.8v-14.4h-9.9v14.4h-5.8V.5Z"/>
  <path class="cls-1" d="M175.1.5h20.3v5.5h-14.5v15.5h12v5.5h-12v36h15.7v5.5h-21.5V.5Z"/>
  <path class="cls-1" d="M203.6.5h11.2c6.3,0,10.3,4.8,10.3,10.4v47.1c0,5.7-4,10.5-10.3,10.5h-11.2V.5ZM214.8,63c2.8,0,4.5-2.2,4.5-4.7V10.6c0-2.5-1.7-4.6-4.5-4.6h-5.4v57h5.4Z"/>
  <path class="cls-1" d="M233.9.5h20.3v5.5h-14.5v15.5h12v5.5h-12v36h15.7v5.5h-21.5V.5Z"/>
  <path class="cls-1" d="M262.19,10.5c0-5.6,4-10.5,10.3-10.5h.9c6.3,0,10.3,4.9,10.3,10.5v58h-5.8V10.2c0-2.5-1.7-4.7-4.5-4.7h-.8c-2.8,0-4.6,2.2-4.6,4.7v58.3h-5.8V10.5Z"/>
  <path class="cls-1" d="M.4,84.5h20.3v5.5H6.2v15.5h12v5.5H6.2v36h15.7v5.5H.4v-68Z"/>
  <path class="cls-1" d="M28.7,94.5c0-5.6,4-10.5,10.3-10.5h.9c6.3,0,10.3,4.9,10.3,10.5v58h-5.8v-58.3c0-2.5-1.7-4.7-4.5-4.7h-.8c-2.8,0-4.6,2.2-4.6,4.7v58.3h-5.8v-58Z"/>
  <path class="cls-1" d="M70.5,84.5h5.4l7.1,56h.4l7.1-56h5.3l-8.7,68h-7.7l-8.9-68Z"/>
  <path class="cls-1" d="M102.6,84.5h20.3v5.5h-14.5v15.5h12v5.5h-12v36h15.7v5.5h-21.5v-68Z"/>
  <path class="cls-1" d="M131.1,84.5h10.1c5.9,0,10.2,4.7,10.2,10.1v6.4c0,2.5-.6,5.1-3.1,6.8,3,1.6,4.3,4.7,4.3,7.9v36.8l-5.8.1v-37.1c0-2.3-1.7-4.4-4.4-4.4h-5.5v41.4h-5.8v-68ZM141.3,105.6c2.6,0,4.3-2.1,4.3-4.4v-6.8c0-2.3-1.7-4.4-4.4-4.4h-4.3v15.6h4.4Z"/>
  <path class="cls-1" d="M160.8,84.5h5.8v62.5h15.7v5.5h-21.5v-68Z"/>
  <path class="cls-1" d="M188.5,84.5h20.3v5.5h-14.5v15.5h12v5.5h-12v36h15.7v5.5h-21.5v-68Z"/>
  <path class="cls-1" d="M216.99,84.5h11.2c6.3,0,10.3,4.8,10.3,10.4v47.1c0,5.7-4,10.5-10.3,10.5h-11.2v-68ZM228.19,147c2.8,0,4.5-2.2,4.5-4.7v-47.7c0-2.5-1.7-4.6-4.5-4.6h-5.4v57h5.4Z"/>
  <path class="cls-1" d="M247.29,84.5h20.3v5.5h-14.5v15.5h12v5.5h-12v36h15.7v5.5h-21.5v-68Z"/>
  <path class="cls-1" d="M275.59,94.5c0-5.6,4-10.5,10.3-10.5h.9c6.3,0,10.3,4.9,10.3,10.5v58h-5.8v-58.3c0-2.5-1.7-4.7-4.5-4.7h-.8c-2.8,0-4.6,2.2-4.6,4.7v58.3h-5.8v-58Z"/>
  <path class="cls-1" d="M.4,168.5h20.3v5.5H6.2v15.5h12v5.5H6.2v36h15.7v5.5H.4v-68Z"/>
  <path class="cls-1" d="M28.9,168.5h5.8v62.5h15.7v5.5h-21.5v-68Z"/>
  <path class="cls-1" d="M78.1,200v36.5h-5.8v-36.9c0-2.4-1.7-4.6-4.5-4.6h-5.4v41.5h-5.8v-68h5.8v21.1l11.1-21.1h5.7l-11.1,21.1c6.1,0,10,5,10,10.4Z"/>
  <path class="cls-1" d="M86.5,178.5c0-5.6,4-10.5,10.3-10.5h.9c6.3,0,10.3,4.9,10.3,10.5v58h-5.8v-14.5h-9.9v14.5h-5.8v-58ZM102.2,216.5v-38.4c0-2.5-1.7-4.6-4.5-4.6h-.8c-2.8,0-4.6,2.1-4.6,4.6v38.4h9.9Z"/>
  <path class="cls-1" d="M116.8,178.5c0-5.6,4-10.5,10.3-10.5h.9c6.3,0,10.3,4.9,10.3,10.5v58h-5.8v-14.5h-9.9v14.5h-5.8v-58ZM132.5,216.5v-38.4c0-2.5-1.7-4.6-4.5-4.6h-.8c-2.8,0-4.6,2.1-4.6,4.6v38.4h9.9Z"/>
  <path class="cls-1" d="M147.3,168.5h10.1c5.9,0,10.2,4.7,10.2,10.1v6.4c0,2.5-.6,5.1-3.1,6.8,3,1.6,4.3,4.7,4.3,7.9v36.8l-5.8.1v-37.1c0-2.3-1.7-4.4-4.4-4.4h-5.5v41.4h-5.8v-68ZM157.5,189.6c2.6,0,4.3-2.1,4.3-4.4v-6.8c0-2.3-1.7-4.4-4.4-4.4h-4.3v15.6h4.4Z"/>
  <path class="cls-1" d="M0,262.5c0-5.6,4-10.5,10.3-10.5h.9c6.3,0,10.3,4.9,10.3,10.5v47.9c0,5.8-4,10.6-10.3,10.6h-.9c-6.3,0-10.3-4.8-10.3-10.6v-47.9ZM10.4,315.5h.8c2.8,0,4.5-2.2,4.5-4.7v-48.7c0-2.5-1.7-4.6-4.5-4.6h-.8c-2.8,0-4.6,2.1-4.6,4.6v48.7c0,2.5,1.8,4.7,4.6,4.7Z"/>
  <path class="cls-1" d="M30.1,262.5c0-5.6,4-10.5,10.3-10.5h.9c6.3,0,10.3,4.9,10.3,10.5v58h-5.8v-58.3c0-2.5-1.7-4.7-4.5-4.7h-.8c-2.8,0-4.6,2.2-4.6,4.7v58.3h-5.8v-58Z"/>
  <path class="cls-1" d="M65.9,258h-7.9v-5.5h21.5v5.5h-7.8v62.5h-5.8v-62.5Z"/>
  <path class="cls-1" d="M85.9,261.5c0-5.6,3.4-9.5,9.3-9.5,2.6,0,5,1,6.3,2.6,1.3-1.7,3.7-2.6,6.4-2.6,5.9,0,9.2,3.9,9.2,9.5v59h-5.8v-58.8c0-2.5-.9-4.2-3.4-4.2s-3.5,1.7-3.5,4.2v58.8h-5.8v-58.8c0-2.5-.9-4.2-3.4-4.2s-3.5,1.7-3.5,4.2v58.8h-5.8v-59Z"/>
  <path class="cls-1" d="M125.7,262.5c0-5.6,4-10.5,10.3-10.5h.9c6.3,0,10.3,4.9,10.3,10.5v47.9c0,5.8-4,10.6-10.3,10.6h-.9c-6.3,0-10.3-4.8-10.3-10.6v-47.9ZM136.1,315.5h.8c2.8,0,4.5-2.2,4.5-4.7v-48.7c0-2.5-1.7-4.6-4.5-4.6h-.8c-2.8,0-4.6,2.1-4.6,4.6v48.7c0,2.5,1.8,4.7,4.6,4.7Z"/>
  <path class="cls-1" d="M156,252.5h20.3v5.5h-14.5v15.5h12v5.5h-12v36h15.7v5.5h-21.5v-68Z"/>
  <path class="cls-1" d="M189.8,258h-7.9v-5.5h21.5v5.5h-7.8v62.5h-5.8v-62.5Z"/>
  <path class="cls-1" d="M210,252.5h20.3v5.5h-14.5v15.5h12v5.5h-12v36h15.7v5.5h-21.5v-68Z"/>
  <path class="cls-1" d="M238.29,262.5c0-5.6,4-10.5,10.3-10.5h.9c6.3,0,10.3,4.9,10.3,10.5v58h-5.8v-58.3c0-2.5-1.7-4.7-4.5-4.7h-.8c-2.8,0-4.6,2.2-4.6,4.7v58.3h-5.8v-58Z"/>
</svg>